HIERARCHY
ROOT Hips
{
	OFFSET -0.001795 -0.223333 0.028219
	CHANNELS 6 Xposition Yposition Zposition Zrotation Yrotation Xrotation 
	JOINT LeftUpLeg
	{
		OFFSET 0.069520 -0.091406 -0.006815
		CHANNELS 3 Zrotation Yrotation Xrotation
		JOINT LeftLeg
		{
			OFFSET 0.034277 -0.375199 -0.004496
			CHANNELS 3 Zrotation Yrotation Xrotation
			JOINT LeftFoot
			{
				OFFSET -0.013596 -0.397961 -0.043693
				CHANNELS 3 Zrotation Yrotation Xrotation
				JOINT LeftToe
				{
					OFFSET 0.026358 -0.055791 0.119288
					CHANNELS 3 Zrotation Yrotation Xrotation
					End Site
					{
						OFFSET 0.000000 0.000000 0.000000
					}
				}
			}
		}
	}
	JOINT RightUpLeg
	{
		OFFSET -0.067670 -0.090522 -0.004320
		CHANNELS 3 Zrotation Yrotation Xrotation
		JOINT RightLeg
		{
			OFFSET -0.038290 -0.382569 -0.008850
			CHANNELS 3 Zrotation Yrotation Xrotation
			JOINT RightFoot
			{
				OFFSET 0.015774 -0.398415 -0.042312
				CHANNELS 3 Zrotation Yrotation Xrotation
				JOINT RightToe
				{
					OFFSET -0.025372 -0.048144 0.123348
					CHANNELS 3 Zrotation Yrotation Xrotation
					End Site
					{
						OFFSET 0.000000 0.000000 0.000000
					}
				}
			}
		}
	}
	JOINT Spine
	{
		OFFSET -0.002533 0.108963 -0.026696
		CHANNELS 3 Zrotation Yrotation Xrotation
		JOINT Spine1
		{
			OFFSET 0.005487 0.135180 0.001092
			CHANNELS 3 Zrotation Yrotation Xrotation
			JOINT Spine2
			{
				OFFSET 0.001457 0.052922 0.025425
				CHANNELS 3 Zrotation Yrotation Xrotation
				JOINT Neck
				{
					OFFSET -0.002778 0.213870 -0.042857
					CHANNELS 3 Zrotation Yrotation Xrotation
					JOINT Head
					{
						OFFSET 0.005152 0.064970 0.051349
						CHANNELS 3 Zrotation Yrotation Xrotation
						End Site
						{
							OFFSET 0.000000 0.000000 0.000000
						}
					}
				}
				JOINT LeftShoulder
				{
					OFFSET 0.078845 0.121749 -0.034090
					CHANNELS 3 Zrotation Yrotation Xrotation
					JOINT LeftArm
					{
						OFFSET 0.090977 0.030469 -0.008868
						CHANNELS 3 Zrotation Yrotation Xrotation
						JOINT LeftForeArm
						{
							OFFSET 0.259612 -0.012772 -0.027456
							CHANNELS 3 Zrotation Yrotation Xrotation
							JOINT LeftHand
							{
								OFFSET 0.249234 0.008986 -0.001171
								CHANNELS 3 Zrotation Yrotation Xrotation
								End Site
								{
									OFFSET 0.000000 0.000000 0.000000
								}
							}
						}
					}
				}
				JOINT RightShoulder
				{
					OFFSET -0.081759 0.118833 -0.038615
					CHANNELS 3 Zrotation Yrotation Xrotation
					JOINT RightArm
					{
						OFFSET -0.096012 0.032551 -0.009143
						CHANNELS 3 Zrotation Yrotation Xrotation
						JOINT RightForeArm
						{
							OFFSET -0.253742 -0.013329 -0.021401
							CHANNELS 3 Zrotation Yrotation Xrotation
							JOINT RightHand
							{
								OFFSET -0.255298 0.007772 -0.005559
								CHANNELS 3 Zrotation Yrotation Xrotation
								End Site
								{
									OFFSET 0.000000 0.000000 0.000000
								}
							}
						}
					}
				}
			}
		}
	}
}
MOTION
Frames: 9
Frame Time: 0.050000
0.000000 0.938446 0.000000 0.222203 -1.371636 7.644450 6.175384 -0.320187 -3.829890 0.038562 0.167786 -4.970789 1.938791 6.883267 9.159635 0.000000 0.000000 0.000000 -4.954650 0.541349 -5.548380 -2.358254 0.049400 -3.103236 -0.887548 -5.834536 8.866271 0.000000 0.000000 0.000000 5.252363 0.416335 -6.778198 -2.750367 1.259704 -5.645095 -5.013714 4.638316 6.641752 4.052892 -1.386425 -11.917246 0.000000 0.000000 0.000000 -15.409404 -0.600399 -2.063908 -56.435940 -7.922260 -3.122283 -5.075488 -15.237381 1.139255 0.000000 0.000000 0.000000 12.332257 -8.723618 -4.552183 66.138899 1.951720 -5.003047 6.003537 22.131045 2.053879 0.000000 0.000000 0.000000 
-0.000015 0.937945 0.000349 0.197659 -1.954781 8.449911 5.986601 -0.306904 -3.309203 0.423873 0.213392 -6.750018 2.132971 7.260609 9.566493 0.000000 0.000000 0.000000 -5.080261 0.618790 -6.633815 -2.598476 0.069889 -2.995783 -0.344589 -4.985553 9.409028 0.000000 0.000000 0.000000 6.739288 0.513015 -7.453007 -3.674665 1.626644 -5.759593 -6.280509 5.557602 5.975243 3.294034 -0.641190 -13.138458 0.000000 0.000000 0.000000 -16.226619 -0.131486 -2.614117 -55.186325 -8.078195 -2.858795 -5.127047 -14.385134 1.057903 0.000000 0.000000 0.000000 12.112268 -10.243188 -5.167509 67.694220 0.802459 -5.543135 5.961319 21.778058 2.036901 0.000000 0.000000 0.000000 
-0.000071 0.937906 0.000449 0.758193 -1.521036 8.087444 5.572511 -0.321730 -3.672301 0.393211 0.140986 -4.873495 1.724818 6.275380 8.329711 0.000000 0.000000 0.000000 -5.510883 0.599677 -6.552077 -2.713024 0.105491 -2.607195 -1.118689 -6.364459 8.999778 0.000000 0.000000 0.000000 6.282965 0.468578 -7.122220 -3.618900 1.598414 -6.634295 -6.490049 4.654715 6.488202 2.569202 -0.298626 -12.649216 0.000000 0.000000 0.000000 -16.276671 -0.255056 -2.404910 -54.997196 -7.633179 -3.124128 -4.495758 -13.830543 0.963513 0.000000 0.000000 0.000000 13.407554 -9.178677 -4.892014 66.083499 0.895163 -5.608891 6.101187 21.630415 2.020445 0.000000 0.000000 0.000000 
-0.000219 0.937759 0.000466 0.948313 -1.370545 8.463427 5.830669 -0.342666 -4.033883 -0.093019 0.176074 -4.959875 1.507328 5.943236 8.472728 0.000000 0.000000 0.000000 -5.717033 0.630536 -7.120772 -2.949774 0.109305 -2.834010 -1.279230 -6.840931 9.542097 0.000000 0.000000 0.000000 6.449706 0.494577 -7.434131 -4.109613 1.807330 -6.017208 -6.579322 3.921272 5.180254 1.931947 -0.099161 -11.175632 0.000000 0.000000 0.000000 -16.530939 0.268735 -2.624069 -55.160936 -8.199865 -2.734081 -2.816222 -12.701967 0.707968 0.000000 0.000000 0.000000 12.218138 -9.320376 -4.899977 66.806313 0.258179 -5.879006 6.932200 22.221950 2.190535 0.000000 0.000000 0.000000 
-0.000510 0.938356 0.000380 1.148750 -0.956842 8.379301 5.516135 -0.356167 -4.236788 -0.020803 0.161839 -4.693697 1.347845 5.736534 8.597406 0.000000 0.000000 0.000000 -5.682315 0.620133 -7.043631 -3.399861 0.134522 -2.995364 -1.609376 -7.523367 9.777791 0.000000 0.000000 0.000000 6.061430 0.467478 -7.303057 -3.683138 1.638489 -6.132997 -6.819523 3.662780 5.231124 1.825948 0.016862 -11.581887 0.000000 0.000000 0.000000 -16.415046 0.107757 -2.527899 -55.052802 -8.508348 -2.595995 -3.005164 -12.311644 0.707222 0.000000 0.000000 0.000000 12.254443 -9.465515 -4.971290 66.775845 0.491340 -5.744227 6.670882 21.989939 2.119389 0.000000 0.000000 0.000000 
-0.000779 0.938954 0.000309 1.213407 -1.024790 8.573765 5.566062 -0.365509 -4.417351 -0.172875 0.169021 -4.603046 1.521244 6.039279 8.615810 0.000000 0.000000 0.000000 -5.704542 0.624381 -7.058041 -3.685668 0.110048 -3.622268 -1.428765 -7.388385 10.523638 0.000000 0.000000 0.000000 5.969656 0.469299 -7.380766 -3.780620 1.674918 -6.199814 -6.696881 3.657565 4.907707 1.979638 -0.149692 -11.030583 0.000000 0.000000 0.000000 -16.739106 0.488354 -2.769919 -54.751150 -8.558511 -2.512377 -2.700231 -11.879757 0.650719 0.000000 0.000000 0.000000 12.100840 -9.669914 -5.058723 66.864763 0.349378 -5.788514 6.659099 21.924095 2.103091 0.000000 0.000000 0.000000 
-0.000976 0.939355 0.000225 1.201470 -0.858043 8.574488 5.559651 -0.377975 -4.664277 -0.226056 0.164726 -4.366466 1.505957 6.178957 9.154123 0.000000 0.000000 0.000000 -5.530620 0.618601 -6.936095 -3.957670 0.103924 -3.972708 -1.314545 -7.226045 10.800448 0.000000 0.000000 0.000000 5.841359 0.440457 -7.140213 -3.674200 1.634052 -6.214089 -6.636370 3.364606 4.670444 2.208315 -0.271422 -11.432311 0.000000 0.000000 0.000000 -16.855417 0.604427 -2.809156 -54.515943 -8.429598 -2.536337 -2.766430 -12.254404 0.680393 0.000000 0.000000 0.000000 12.309783 -9.600869 -5.084807 66.689414 0.191378 -5.873303 6.479323 22.255622 2.095856 0.000000 0.000000 0.000000 
-0.001060 0.939821 0.000150 1.179553 -0.473908 8.758460 5.471098 -0.411608 -5.277441 -0.279904 0.150134 -3.805304 1.636815 6.419119 9.068449 0.000000 0.000000 0.000000 -5.326078 0.623587 -7.011042 -4.093423 0.117163 -3.940450 -1.417371 -7.331092 10.633633 0.000000 0.000000 0.000000 5.648505 0.421103 -7.066044 -3.522100 1.576617 -6.224935 -6.550170 3.272743 4.377659 2.636737 -0.562152 -11.260999 0.000000 0.000000 0.000000 -16.871250 0.762397 -2.924827 -54.351209 -8.349291 -2.529914 -3.143709 -12.846151 0.749512 0.000000 0.000000 0.000000 12.555263 -9.903269 -5.255305 66.470381 0.086102 -5.872750 6.730440 22.161517 2.133097 0.000000 0.000000 0.000000 
-0.001116 0.940174 0.000064 1.113705 -0.289472 8.754759 5.445034 -0.426697 -5.580230 -0.359619 0.144070 -3.426171 1.718590 6.572450 9.042460 0.000000 0.000000 0.000000 -5.183770 0.616355 -6.875087 -4.121836 0.091749 -4.312415 -1.394766 -7.301627 10.768384 0.000000 0.000000 0.000000 5.588871 0.404117 -6.912668 -3.412773 1.534131 -6.289547 -6.437310 3.302521 4.323484 2.937054 -0.767283 -11.127045 0.000000 0.000000 0.000000 -16.784986 0.752297 -2.930572 -54.264213 -8.465476 -2.467649 -3.587619 -13.434745 0.830820 0.000000 0.000000 0.000000 12.837859 -9.818962 -5.241949 66.042509 -0.083609 -5.930678 7.029999 22.316331 2.209530 0.000000 0.000000 0.000000 
